PathFileType	4	(X/Y/Z)	 s08c0103.trc
DataRate	CameraRate	NumFrames	NumMarkers	Units	OrigDataRate	OrigDataStartFrame	OrigNumFrames
200	200	4	50	mm	200	1501	2000
Frame#	Time	racr			lacr			c7			jug			rlel			rdr			llel			ldr			s2			lic			ric			lasi			rasi			rpsi			lpsi			rgt			lgt			rth1			rth2			rth3			rth4			rlfc			rmfc			rsh1			rsh2			rsh3			rsh4			rlmal			rmmal			rcal			rtoe			rmt5			lth1			lth2			lth4			lth3			llfc			lmfc			llmal			lmmal			lcal			lmt5			lsh1			lsh2			lsh3			lsh4			ltoe			SBIKE			LBIKE			RBIKE			
		X1	Y1	Z1	X2	Y2	Z2	X3	Y3	Z3	X4	Y4	Z4	X5	Y5	Z5	X6	Y6	Z6	X7	Y7	Z7	X8	Y8	Z8	X9	Y9	Z9	X10	Y10	Z10	X11	Y11	Z11	X12	Y12	Z12	X13	Y13	Z13	X14	Y14	Z14	X15	Y15	Z15	X16	Y16	Z16	X17	Y17	Z17	X18	Y18	Z18	X19	Y19	Z19	X20	Y20	Z20	X21	Y21	Z21	X22	Y22	Z22	X23	Y23	Z23	X24	Y24	Z24	X25	Y25	Z25	X26	Y26	Z26	X27	Y27	Z27	X28	Y28	Z28	X29	Y29	Z29	X30	Y30	Z30	X31	Y31	Z31	X32	Y32	Z32	X33	Y33	Z33	X34	Y34	Z34	X35	Y35	Z35	X36	Y36	Z36	X37	Y37	Z37	X38	Y38	Z38	X39	Y39	Z39	X40	Y40	Z40	X41	Y41	Z41	X42	Y42	Z42	X43	Y43	Z43	X44	Y44	Z44	X45	Y45	Z45	X46	Y46	Z46	X47	Y47	Z47	X48	Y48	Z48	X49	Y49	Z49	X50	Y50	Z50	
1501	7.5050	545.143934	1368.466595	-40.701345	574.898655	1349.798370	-354.983783	531.214166	1429.518737	-207.798204	488.612175	1272.229579	-191.696418	554.575155	1101.734015	38.937386	778.995643	915.953392	-47.415494	611.157359	1099.783761	-477.568872	796.104445	889.816777	-411.381036	-26.502700	1225.396378	-261.659653	154.125344	1206.370313	-385.760333	112.192639	1244.422114	-79.959399	164.303628	1156.282696	-346.792940	160.659468	1186.755764	-86.068282	0.732131	1270.431660	-210.660911	12.520200	1266.465513	-307.892455	46.777293	1135.420147	-51.415055	89.663418	1092.971364	-424.054942	180.289044	1017.103755	-37.925423	260.476394	979.090441	-37.491853	309.627015	907.563549	-44.205244	284.235984	1006.524139	-44.726370	395.254188	822.710898	-58.377498	382.000488	808.702931	-170.332799	345.363923	698.893053	-30.123769	355.171830	610.721854	-46.351185	319.556115	531.980588	-52.837040	384.322829	609.942176	-74.683285	294.279560	414.031682	-60.882159	307.895978	437.177567	-148.941035	219.307723	369.266317	-105.845620	514.346906	418.363175	-97.594454	431.572073	368.087103	-33.644644	173.524072	991.673175	-422.404539	243.408981	939.227554	-416.664065	269.729111	959.867163	-402.414802	278.268033	857.543218	-418.508143	323.696736	735.507345	-401.928763	316.102605	708.162885	-294.506207	60.514868	409.543742	-400.482820	96.817267	409.282475	-316.661194	-0.056427	427.022725	-356.925365	126.437739	253.617832	-416.301583	245.668422	632.157221	-425.824415	209.279572	556.212751	-406.918023	139.796687	502.560586	-408.304161	229.560445	544.979333	-374.770065	209.594098	227.624025	-347.757027	-195.044006	924.112794	-223.931461	-2.410799	83.318481	-426.183364	-6.849348	80.642817	-27.925195	
1502	7.5100	545.954127	1366.962480	-40.822930	574.985098	1348.753764	-355.748044	531.884352	1428.334922	-208.640328	489.807623	1270.837811	-192.383854	554.248817	1099.676824	38.816798	779.183202	914.215034	-48.503790	611.303746	1098.784288	-478.226275	796.403130	889.841923	-411.617073	-26.207150	1223.753659	-261.017866	153.972371	1205.577908	-384.616093	113.242868	1241.224941	-78.543997	164.441739	1155.603782	-345.446632	162.236378	1183.750397	-84.695595	1.949258	1268.253477	-212.683786	12.669747	1264.761148	-306.625204	46.532791	1131.781764	-50.806921	91.756142	1092.319200	-423.852424	178.444033	1011.081368	-37.350496	257.953360	971.535750	-36.990521	305.755147	899.184523	-43.871871	282.177139	998.719157	-43.971718	390.742453	813.049204	-58.101752	377.109533	798.786617	-170.376591	343.539910	688.388989	-29.784397	354.571527	600.364466	-45.967409	319.994665	521.100935	-52.268855	383.271578	600.039891	-74.860579	296.459890	402.472757	-60.215018	309.662307	425.753994	-148.304107	221.734199	357.393599	-105.222613	516.597939	407.971456	-97.740493	434.242538	357.179222	-33.560743	176.817247	992.957815	-422.305746	247.660889	941.818766	-415.933799	273.383509	962.791038	-400.896703	284.301178	860.834125	-418.466489	330.935650	740.157989	-401.679088	324.422943	712.398721	-295.711475	60.912119	420.297054	-400.120295	96.949006	419.462994	-316.542493	0.320223	439.126718	-356.833262	123.981435	263.704452	-416.229336	251.351153	638.151860	-425.524234	214.302303	565.139408	-409.451659	142.408898	511.258067	-408.130210	232.951288	551.598058	-374.257836	206.774931	236.408182	-347.708490	-195.150153	924.206745	-223.410317	-2.386172	83.334915	-426.159872	-6.816399	80.637357	-27.885278	
1503	7.5150	546.625114	1365.739926	-41.043446	574.878458	1347.729543	-356.538309	532.233368	1427.202894	-209.173851	490.891174	1269.674564	-193.187516	554.190515	1097.805803	38.870525	779.193942	913.190476	-48.887679	611.025982	1098.021859	-479.182346	796.527817	889.927390	-411.934272	-25.763702	1221.871594	-260.194937	153.777630	1204.916257	-383.308375	114.398789	1238.204046	-77.172151	164.613207	1155.040176	-344.201572	163.748357	1180.660855	-83.404322	2.810861	1265.593363	-210.659859	12.854132	1263.123656	-305.037097	46.449766	1128.016019	-50.218077	93.971004	1091.934191	-423.604759	176.589988	1004.812204	-36.799201	255.319081	963.687458	-36.386149	301.898131	890.444232	-43.455304	280.098856	990.534885	-43.119722	386.210313	803.075301	-57.890317	372.375894	789.301444	-169.598259	341.488174	677.841803	-29.532388	353.551619	589.886437	-45.924825	320.300408	510.299389	-51.645589	381.949807	590.216964	-75.237821	298.082990	390.943847	-59.601370	311.180720	415.158311	-147.260232	223.602538	345.577890	-104.750430	518.407706	397.266698	-97.770934	436.244553	346.071078	-33.612913	180.138861	994.306215	-422.254262	251.895879	944.717320	-415.576189	276.884225	965.933696	-399.878815	290.389487	864.450716	-418.648475	338.334192	745.028208	-401.373943	332.582652	716.988777	-296.592170	61.641313	431.433434	-399.991236	97.333778	429.736311	-316.159426	1.156599	451.084574	-356.703084	122.253567	273.958733	-416.124696	257.311922	644.452557	-425.132229	218.406855	572.243909	-408.958433	145.343008	520.112497	-407.761875	236.723491	558.565002	-373.756488	204.567792	245.543255	-347.712497	-195.072594	924.115785	-223.355479	-2.403289	83.337123	-426.137862	-6.805750	80.596558	-27.894968	
1504	7.5200	547.365558	1364.633785	-41.083991	574.656983	1346.846972	-357.488254	532.393525	1426.440596	-209.605646	491.919307	1268.830529	-194.034292	554.467014	1096.192574	39.232685	779.071724	912.051776	-49.195582	610.472273	1097.493646	-480.290909	796.423153	890.011697	-412.203535	-25.426458	1219.834949	-258.966308	153.699353	1204.443082	-382.093552	115.653806	1234.914230	-75.554590	164.726564	1154.458918	-342.782537	165.179115	1177.506556	-82.205877	3.707975	1262.942946	-208.517835	12.973018	1261.436426	-303.308376	46.487266	1124.193092	-49.527207	96.167698	1091.651050	-423.208677	174.712476	998.304736	-36.200176	252.622064	955.678184	-35.838461	298.120778	881.539143	-43.674240	277.904128	982.017537	-42.159007	381.518311	792.949993	-57.566714	367.164771	779.061096	-168.515449	338.612249	667.213249	-29.336311	351.975693	579.565233	-45.770904	319.822286	499.336339	-51.556879	380.413062	580.504934	-74.862386	299.104808	379.573079	-59.431299	311.767284	403.598378	-147.430011	224.899710	334.227743	-104.524109	519.630509	386.286480	-97.732188	437.488063	334.841276	-33.620589	183.424571	995.665657	-422.175721	256.441290	947.944337	-415.793508	280.356680	968.885402	-397.978018	296.484402	868.142561	-418.567465	345.677778	750.359164	-400.958569	340.571202	721.920860	-297.176972	62.724026	442.640690	-399.890454	98.235140	440.219042	-316.048582	2.431859	463.059455	-356.572568	121.087919	284.453382	-416.392001	263.714177	651.693915	-425.704368	222.806966	579.739699	-408.407356	148.687725	529.213516	-407.394772	240.762418	565.826453	-373.195759	203.052726	254.818916	-347.743562	-195.038973	924.247863	-223.098907	-2.409597	83.319632	-426.163246	-6.812604	80.470401	-27.975763	
